REM DIRINDEX 1\2,1\3,1\4,1\5,1\6
REM DIRNAME folder01,folder02,folder03,folder04,folder05,folder06
TITLE ""
FILE "Disc1Track07.mp3" MP3
  TRACK 01 AUDIO
    TITLE "3:cjc030_00120"
    INDEX 01 00:00:00
  TRACK 02 AUDIO
    TITLE "0:"
    INDEX 01 00:01:28
  TRACK 03 AUDIO
    TITLE "4:cjc030_00121"
    INDEX 01 00:01:36
  TRACK 04 AUDIO
    TITLE "0:"
    INDEX 01 00:02:59
  TRACK 05 AUDIO
    TITLE "5:cjc030_00122"
    INDEX 01 00:02:67
  TRACK 06 AUDIO
    TITLE "0:"
    INDEX 01 00:04:27
  TRACK 07 AUDIO
    TITLE "6:cjc030_00123"
    INDEX 01 00:04:38
  TRACK 08 AUDIO
    TITLE "0:"
    INDEX 01 00:07:66
  TRACK 09 AUDIO
    TITLE "3:cjc030_00124"
    INDEX 01 00:08:36
  TRACK 10 AUDIO
    TITLE "0:"
    INDEX 01 00:09:59
  TRACK 11 AUDIO
    TITLE "4:cjc030_00125"
    INDEX 01 00:09:69
  TRACK 12 AUDIO
    TITLE "0:"
    INDEX 01 00:11:50
  TRACK 13 AUDIO
    TITLE "5:cjc030_00126"
    INDEX 01 00:11:58
  TRACK 14 AUDIO
    TITLE "0:"
    INDEX 01 00:13:06
  TRACK 15 AUDIO
    TITLE "6:cjc030_00127"
    INDEX 01 00:13:20
  TRACK 16 AUDIO
    TITLE "0:"
    INDEX 01 00:16:73
  TRACK 17 AUDIO
    TITLE "3:cjc030_00128"
    INDEX 01 00:17:47
  TRACK 18 AUDIO
    TITLE "0:"
    INDEX 01 00:18:68
  TRACK 19 AUDIO
    TITLE "4:cjc030_00129"
    INDEX 01 00:19:03
  TRACK 20 AUDIO
    TITLE "0:"
    INDEX 01 00:20:24
  TRACK 21 AUDIO
    TITLE "5:cjc030_00130"
    INDEX 01 00:20:34
  TRACK 22 AUDIO
    TITLE "0:"
    INDEX 01 00:21:55
  TRACK 23 AUDIO
    TITLE "3:cjc030_00131"
    INDEX 01 00:22:30
  TRACK 24 AUDIO
    TITLE "0:"
    INDEX 01 00:23:51
  TRACK 25 AUDIO
    TITLE "4:cjc030_00132"
    INDEX 01 00:23:61
  TRACK 26 AUDIO
    TITLE "0:"
    INDEX 01 00:27:61
  TRACK 27 AUDIO
    TITLE "5:cjc030_00133"
    INDEX 01 00:27:69
  TRACK 28 AUDIO
    TITLE "0:"
    INDEX 01 00:29:15
  TRACK 29 AUDIO
    TITLE "6:cjc030_00134"
    INDEX 01 00:29:31
  TRACK 30 AUDIO
    TITLE "0:"
    INDEX 01 00:33:19
  TRACK 31 AUDIO
    TITLE "3:cjc030_00135"
    INDEX 01 00:33:68
  TRACK 32 AUDIO
    TITLE "0:"
    INDEX 01 00:35:15
  TRACK 33 AUDIO
    TITLE "4:cjc030_00136"
    INDEX 01 00:35:25
  TRACK 34 AUDIO
    TITLE "0:"
    INDEX 01 00:36:50
  TRACK 35 AUDIO
    TITLE "5:cjc030_00137"
    INDEX 01 00:36:58
  TRACK 36 AUDIO
    TITLE "0:"
    INDEX 01 00:38:10
  TRACK 37 AUDIO
    TITLE "3:cjc030_00138"
    INDEX 01 00:38:57
  TRACK 38 AUDIO
    TITLE "0:"
    INDEX 01 00:40:03
  TRACK 39 AUDIO
    TITLE "4:cjc030_00139"
    INDEX 01 00:40:15
  TRACK 40 AUDIO
    TITLE "0:"
    INDEX 01 00:42:10
  TRACK 41 AUDIO
    TITLE "5:cjc030_00140"
    INDEX 01 00:42:19
  TRACK 42 AUDIO
    TITLE "0:"
    INDEX 01 00:43:40
  TRACK 43 AUDIO
    TITLE "6:cjc030_00141"
    INDEX 01 00:43:52
  TRACK 44 AUDIO
    TITLE "0:"
    INDEX 01 00:47:54
  TRACK 45 AUDIO
    TITLE "3:cjc030_00142"
    INDEX 01 00:48:28
  TRACK 46 AUDIO
    TITLE "0:"
    INDEX 01 00:49:63
  TRACK 47 AUDIO
    TITLE "4:cjc030_00143"
    INDEX 01 00:49:72
  TRACK 48 AUDIO
    TITLE "0:"
    INDEX 01 00:51:40
  TRACK 49 AUDIO
    TITLE "5:cjc030_00144"
    INDEX 01 00:51:48
  TRACK 50 AUDIO
    TITLE "0:"
    INDEX 01 00:53:06
  TRACK 51 AUDIO
    TITLE "3:cjc030_00145"
    INDEX 01 00:53:55
  TRACK 52 AUDIO
    TITLE "0:"
    INDEX 01 00:55:03
  TRACK 53 AUDIO
    TITLE "4:cjc030_00146"
    INDEX 01 00:55:12
  TRACK 54 AUDIO
    TITLE "0:"
    INDEX 01 00:57:13
  TRACK 55 AUDIO
    TITLE "5:cjc030_00147"
    INDEX 01 00:57:21
  TRACK 56 AUDIO
    TITLE "0:"
    INDEX 01 00:58:42
  TRACK 57 AUDIO
    TITLE "3:cjc030_00148"
    INDEX 01 00:59:16
  TRACK 58 AUDIO
    TITLE "0:"
    INDEX 01 01:00:33
  TRACK 59 AUDIO
    TITLE "4:cjc030_00149"
    INDEX 01 01:00:43
  TRACK 60 AUDIO
    TITLE "0:"
    INDEX 01 01:03:22
  TRACK 61 AUDIO
    TITLE "5:cjc030_00150"
    INDEX 01 01:03:31
  TRACK 62 AUDIO
    TITLE "0:"
    INDEX 01 01:04:48
  TRACK 63 AUDIO
    TITLE "6:cjc030_00151"
    INDEX 01 01:04:60
  TRACK 64 AUDIO
    TITLE "0:"
    INDEX 01 01:08:60
  TRACK 65 AUDIO
    TITLE "3:cjc030_00152"
    INDEX 01 01:09:30
  TRACK 66 AUDIO
    TITLE "0:"
    INDEX 01 01:10:51
  TRACK 67 AUDIO
    TITLE "4:cjc030_00153"
    INDEX 01 01:10:57
  TRACK 68 AUDIO
    TITLE "0:"
    INDEX 01 01:12:40
  TRACK 69 AUDIO
    TITLE "5:cjc030_00154"
    INDEX 01 01:12:48
  TRACK 70 AUDIO
    TITLE "0:"
    INDEX 01 01:13:69
  TRACK 71 AUDIO
    TITLE "6:cjc030_00155"
    INDEX 01 01:14:06
  TRACK 72 AUDIO
    TITLE "0:"
    INDEX 01 01:19:13
  TRACK 73 AUDIO
    TITLE "3:cjc030_00156"
    INDEX 01 01:19:60
  TRACK 74 AUDIO
    TITLE "0:"
    INDEX 01 01:21:14
  TRACK 75 AUDIO
    TITLE "4:cjc030_00157"
    INDEX 01 01:21:21
  TRACK 76 AUDIO
    TITLE "0:"
    INDEX 01 01:22:01
  TRACK 77 AUDIO
    TITLE "5:cjc030_00158"
    INDEX 01 01:22:09
  TRACK 78 AUDIO
    TITLE "0:"
    INDEX 01 01:23:40
  TRACK 79 AUDIO
    TITLE "6:cjc030_00159"
    INDEX 01 01:23:54
  TRACK 80 AUDIO
    TITLE "0:"
    INDEX 01 01:25:45
